<?xml version="1.0" encoding="iso-8859-1"?>
<!-- Generator: Adobe Illustrator 19.0.0, SVG Export Plug-In . SVG Version: 6.00 Build 0)  -->
<svg version="1.1" id="Layer_1" xmlns="http://www.w3.org/2000/svg" xmlns:xlink="http://www.w3.org/1999/xlink" x="0px" y="0px"
	 viewBox="0 0 512 512" style="enable-background:new 0 0 512 512;" xml:space="preserve">
<g>
	<g>
		<g>
			<path d="M316.746,442.576H195.254c-4.799,0-8.678,3.888-8.678,8.678s3.879,8.678,8.678,8.678h121.492
				c4.799,0,8.678-3.888,8.678-8.678S321.545,442.576,316.746,442.576z"/>
			<path d="M316.746,407.864H195.254c-4.799,0-8.678,3.888-8.678,8.678s3.879,8.678,8.678,8.678h121.492
				c4.799,0,8.678-3.888,8.678-8.678S321.545,407.864,316.746,407.864z"/>
			<path d="M351.458,175.364V69.424H160.542v105.941c-27.179,19.291-43.39,50.063-43.39,83.508v140.132
				c0,62.308,50.688,112.996,112.996,112.996h51.703c62.308,0,112.996-50.688,112.996-112.996V258.872
				C394.847,225.427,378.637,194.655,351.458,175.364z M377.492,399.004c0,52.736-42.895,95.64-95.64,95.64h-51.703
				c-52.745,0-95.64-42.904-95.64-95.64V258.872c0-23.43,9.511-45.36,26.034-61.284v34.929v3.228
				c0,42.27,34.391,76.661,76.661,76.661h3.219h31.154h3.219c42.27,0,76.661-34.391,76.661-76.661v-3.228v-34.929
				c16.523,15.924,26.034,37.853,26.034,61.284V399.004z"/>
			<path d="M351.458,33.618C351.458,15.082,336.375,0,317.839,0H194.161c-18.536,0-33.618,15.082-33.618,33.618v18.449h190.915
				V33.618z"/>
		</g>
	</g>
</g>
<g>
</g>
<g>
</g>
<g>
</g>
<g>
</g>
<g>
</g>
<g>
</g>
<g>
</g>
<g>
</g>
<g>
</g>
<g>
</g>
<g>
</g>
<g>
</g>
<g>
</g>
<g>
</g>
<g>
</g>
</svg>
