<?xml version="1.0"?>
<svg xmlns="http://www.w3.org/2000/svg" viewBox="0 0 512 512" width="512" height="512"><g id="Solid"><path d="M256,457.215a200.571,200.571,0,0,1-133.159-50.792l2.025,32.395a223.953,223.953,0,0,0,256.218,4.2l3.64-32.758A199.64,199.64,0,0,1,256,457.215Z"/><path d="M104.845,357.637l32-64a7.988,7.988,0,0,1,1.887-2.443L190.9,245.548a14.2,14.2,0,0,0-17.226-22.5l-49.236,32.824-8.875-13.312,17.377-11.585,9.143-69.759H114.96L69.594,200.1a24.1,24.1,0,0,0-7.916,13.515L39.963,322.2,32.39,481.215h79.1l-7.469-119.5A8,8,0,0,1,104.845,357.637Z"/><path d="M224.971,386.754a5.255,5.255,0,1,0-7.432,7.431,23.815,23.815,0,0,0,14.317,6.885A23.818,23.818,0,0,0,224.971,386.754Z"/><path d="M217.54,431.677a5.262,5.262,0,0,0,7.431,0,23.821,23.821,0,0,0,6.885-14.317,23.815,23.815,0,0,0-14.316,6.885,5.255,5.255,0,0,0,0,7.433Z"/><path d="M284,289.215a12,12,0,0,0,10-5.386l.06-.091A11.709,11.709,0,0,0,296,277.215v-20h16v24a7.657,7.657,0,0,0,2.3,5.546c.052.051.1.1.155.155a7.659,7.659,0,0,0,5.546,2.3,9.839,9.839,0,0,0,1.006-.1,7.953,7.953,0,0,0,6.994-7.9v-24h16V277.3a7.5,7.5,0,0,0,2.9,5.923,7.64,7.64,0,0,0,6.4,1.464l.564-.169c.112-.034.226-.066.339-.094a7.621,7.621,0,0,0,5.8-7.364v-19.84h16V269.3a7.5,7.5,0,0,0,2.9,5.923,7.635,7.635,0,0,0,6.108,1.522q.262-.087.533-.156A7.678,7.678,0,0,0,391.3,269l-1.944-15.187L369.548,214.2l-50.984-44.61A30.2,30.2,0,0,1,355.2,121.734l18.773,12.516L360.12,33.215H272v244a11.94,11.94,0,0,0,12,12Z"/><path d="M164.8,209.734a30.2,30.2,0,0,1,36.637,47.855L150.452,302.2,137.4,328.3a7.611,7.611,0,0,0,5.067,4.284c.177.045.353.1.526.154a7.635,7.635,0,0,0,6.108-1.522A7.5,7.5,0,0,0,152,325.3v-12.08h16v19.84a7.621,7.621,0,0,0,5.8,7.364c.114.028.227.06.339.094l.564.169a7.64,7.64,0,0,0,6.4-1.464A7.5,7.5,0,0,0,184,333.3v-20.08h16v24a8.009,8.009,0,0,0,8,8,7.657,7.657,0,0,0,5.546-2.3c.051-.052.1-.1.156-.155a7.656,7.656,0,0,0,2.3-5.546v-24h16v20a12,12,0,1,0,24,0v-300H175.18l-1.655,11.341L167.212,92.5l-8.079,61.754-8.511,64.933Z"/><path d="M45.989,210.478a40.18,40.18,0,0,1,13.192-22.526L73.361,175.8a200.48,200.48,0,0,1,78.494-89.234l3.918-29.754A223.777,223.777,0,0,0,32,257.215q0,9.645.807,19.175Z"/><path d="M112,145.215h32.179l4.928-37.67A184.91,184.91,0,0,0,109.88,145.5,7.982,7.982,0,0,1,112,145.215Z"/><path d="M354.745,354.98a23.822,23.822,0,0,0-14.992,5.255,23.816,23.816,0,0,0,14.992,5.255,5.255,5.255,0,0,0,0-10.51Z"/><path d="M255.03,431.676a5.255,5.255,0,0,0,7.431-7.431,23.814,23.814,0,0,0-14.317-6.886A23.816,23.816,0,0,0,255.03,431.676Z"/><path d="M322.981,386.745a5.255,5.255,0,1,0,10.509,0h0a23.823,23.823,0,0,0-5.256-14.992A23.817,23.817,0,0,0,322.981,386.745Z"/><path d="M458.322,125.616a24.106,24.106,0,0,0-7.915-13.515L405.041,73.215H382.233l9.395,72.8,12.81,8.54-8.875,13.312-49.236-32.824a14.2,14.2,0,0,0-17.227,22.5l52.168,45.646a8.006,8.006,0,0,1,1.888,2.443l32,64a8,8,0,0,1,.8,4.462L392.938,481.215H480V234.007Z"/><path d="M390.18,291.9a8.046,8.046,0,0,1-.925.287,23.919,23.919,0,0,1-5.657.683,23.448,23.448,0,0,1-11.413-2.971,23.686,23.686,0,0,1-13.876,9.983,53.67,53.67,0,0,1-6.711.988,23.489,23.489,0,0,1-13.31-4.154A23.824,23.824,0,0,1,322.963,305a22.742,22.742,0,0,1-2.963.219,23.527,23.527,0,0,1-16.936-7.062c-.072-.07-.138-.144-.209-.215A28.152,28.152,0,0,1,272,302.545v30.67a27.985,27.985,0,0,1-46.833,20.7c-.078.079-.151.16-.23.237A23.531,23.531,0,0,1,208,361.215a23.952,23.952,0,0,1-18.3-8.492,23.49,23.49,0,0,1-13.3,4.148,44.7,44.7,0,0,1-6.063-.794l-.648-.194a23.68,23.68,0,0,1-13.876-9.983,23.454,23.454,0,0,1-11.413,2.971,41.7,41.7,0,0,1-6.586-.971,23.6,23.6,0,0,1-8.123-4.184l-9.575,19.15,1.234,19.745a184.7,184.7,0,0,0,79.171,49.99A21.375,21.375,0,0,1,200,427.96a21.111,21.111,0,0,1,6.226-15.029,40.638,40.638,0,0,1,4.281-3.716,40.658,40.658,0,0,1-4.282-3.717,21.255,21.255,0,0,1,30.059-30.059A40.532,40.532,0,0,1,240,379.721a40.648,40.648,0,0,1,3.716-4.282,21.255,21.255,0,0,1,30.059,30.06,40.547,40.547,0,0,1-4.282,3.716,40.442,40.442,0,0,1,4.282,3.717,21.225,21.225,0,0,1,2.392,27.183,183.721,183.721,0,0,0,111.256-54.152l10.923-98.3A23.5,23.5,0,0,1,390.18,291.9ZM354.746,381.49h0a40.459,40.459,0,0,1-5.654-.4,40.636,40.636,0,0,1,.4,5.655h0a21.255,21.255,0,0,1-42.51,0,40.469,40.469,0,0,1,.4-5.654,40.484,40.484,0,0,1-5.655.4,21.255,21.255,0,0,1,0-42.51,40.622,40.622,0,0,1,5.654.4,40.622,40.622,0,0,1-.4-5.654,21.255,21.255,0,0,1,42.51,0,40.469,40.469,0,0,1-.4,5.654,40.636,40.636,0,0,1,5.655-.4,21.255,21.255,0,0,1,0,42.51Z"/><path d="M333.49,333.726a5.255,5.255,0,0,0-10.51,0,23.824,23.824,0,0,0,5.255,14.992A23.816,23.816,0,0,0,333.49,333.726Z"/><path d="M296.471,360.235a5.26,5.26,0,0,0,5.255,5.255,23.808,23.808,0,0,0,14.992-5.255,23.824,23.824,0,0,0-14.992-5.255A5.261,5.261,0,0,0,296.471,360.235Z"/><path d="M262.461,386.753a5.262,5.262,0,0,0-7.431,0h0a23.814,23.814,0,0,0-6.886,14.316,23.817,23.817,0,0,0,14.317-6.884,5.257,5.257,0,0,0,0-7.433Z"/></g></svg>
