<svg id="Layer_1" enable-background="new 0 0 512.992 512.992" height="512" viewBox="0 0 512.992 512.992" width="512" xmlns="http://www.w3.org/2000/svg"><g><ellipse cx="87.152" cy="101.275" rx="42.528" ry="42.528" transform="matrix(.12 -.993 .993 .12 -23.866 175.62)"/><g><path d="m224.815 423.821-39.665-109.855c-2.289-6.338-7.21-11.314-13.415-13.711 4.194 9.335 3.212 20.62-3.526 29.246-5.658 7.244-14.12 10.998-22.652 10.946l35.762 99.08c4.332 11.995 17.573 18.237 29.601 13.895 12.011-4.337 18.231-17.59 13.895-29.601z"/></g><path d="m128.205 334.417-58.597-45.77c-1.443-1.576-9.956-5.444-10.19-15.896l-.733-43.175 9.716 41.049c1.009 4.261 3.438 8.051 6.889 10.747l58.597 45.77c8.437 6.589 20.536 5.012 27.046-3.324 6.551-8.386 5.063-20.495-3.323-27.046l-53.266-41.606-8.158-34.463 12.595 26.216 14.502 11.328 3.667-51.66c1.788-25.188-17.182-47.056-42.369-48.844l-13.479-.957c-26.571-1.886-49.16 19.29-48.957 45.954l.721 94.763c.128 16.872 12.23 31.27 28.828 34.299h-35.493c-8.484 0-15.785 6.52-16.183 14.995-.426 9.048 6.784 16.518 15.739 16.518h42.219v54.971h-12.942c-2.612 0-5.117 1.038-6.964 2.884l-16.822 16.821c-3.847 3.845-3.847 10.081-.001 13.927 3.848 3.845 10.081 3.847 13.927 0l13.938-13.937h37.422l13.937 13.937c3.969 3.967 10.518 3.859 14.336-.433 3.5-3.935 3.081-10.004-.643-13.728l-16.587-16.587c-1.848-1.847-4.353-2.884-6.964-2.884h-12.942v-54.971h41.822c8.379 0 15.596-6.379 16.121-14.742.261-4.162-1.099-7.999-3.503-10.952-.44-.671-3.906-3.204-3.906-3.204z"/><g><path d="m309.08 300.226h-9.975c1.712-1.65 3.178-3.563 4.321-5.688-6.37-4.161-11.073-10.841-12.493-18.926-.816-4.644-.45-9.219.868-13.427-2.045-.835-4.244-1.392-6.556-1.612l-105.151-10.003c-1.932-.184-3.879-.124-5.796.179l-50.42 7.961 39.416 30.788c3.115 2.433 5.586 5.386 7.388 8.639l7.942-1.254 43.504 4.138c-6.291 2.068-10.837 7.98-10.837 14.962 0 8.702 7.055 15.756 15.757 15.756h31.169v86.623c-2.182.26-4.228 1.238-5.798 2.807l-16.822 16.822c-3.847 3.846-3.847 10.081-.001 13.927 3.847 3.845 10.082 3.846 13.927 0l13.938-13.938h12.012c-1.967-11.099 2.206-19.456 2.439-20.513v-85.729h30.954.215c8.702 0 15.757-7.054 15.757-15.756-.001-8.682-7.094-15.756-15.758-15.756z"/></g><ellipse cx="425.84" cy="100.719" rx="42.528" ry="42.528" transform="matrix(.361 -.933 .933 .361 178.194 461.49)"/><g><path d="m496.791 331.245h-35.493c16.597-3.029 28.698-17.42 28.824-34.291.193-25.877.478-64.018.695-93.067.205-27.482-22.993-49.34-50.415-47.504l-11.991.803c-25.188 1.788-44.157 23.656-42.369 48.844l1.496 21.075 23.878-21.684-25.977 34.023-69.77 12.259c-10.48 1.842-17.484 11.831-15.643 22.312 1.844 10.496 11.846 17.483 22.313 15.643l77.182-13.562c4.766-.838 9.043-3.438 11.979-7.285l30.544-40.004-23.206 45.607c-2.785 5.473-7.869 9.009-13.477 10.03-18.615 3.27-61.55 14.987-61.55 14.987-7.396 1.91-13.373 7.35-15.968 14.536l-39.665 109.855c-4.336 12.011 1.885 25.264 13.896 29.6 12.058 4.354 25.281-1.932 29.601-13.895l35.519-98.373 13.174-3.401c-1.891 2.599-3.02 5.789-3.02 9.249 0 1.334.184 2.623.496 3.86 1.724 6.833 7.893 11.897 15.261 11.897h42.219v55.527h-12.942c-2.612 0-5.116 1.038-6.964 2.884l-16.582 16.582c-3.709 3.709-4.149 9.746-.687 13.687 3.793 4.319 10.376 4.478 14.376.479l13.937-13.938h37.422l13.7 13.699c3.709 3.709 9.746 4.148 13.686.687 4.318-3.793 4.478-10.376.478-14.375l-16.822-16.822c-1.847-1.847-4.352-2.884-6.963-2.884h-12.942v-55.527h42.219c8.955 0 16.165-7.469 15.739-16.518-.404-8.475-7.704-14.995-16.188-14.995z"/></g></g></svg>