<svg id="Solid" height="512" viewBox="0 0 512 512" width="512" xmlns="http://www.w3.org/2000/svg"><path d="m208 296a24.01 24.01 0 0 0 .281 3.67 64.434 64.434 0 0 1 26.256-10.5l-26.537-39.802z"/><path d="m288 296v-38.2l-30.757 30.76c11.636 1.366 22.281 5.268 30.476 11.11a24.01 24.01 0 0 0 .281-3.67z"/><path d="m288 216a8.009 8.009 0 0 0 -8-8h-30.632l38.632 25.755z"/><path d="m464 232a40.045 40.045 0 0 1 -40 40h-32a40.045 40.045 0 0 1 -40-40v-55.169a56.2 56.2 0 0 0 -16 39.169v264h144v-264a56.2 56.2 0 0 0 -16-39.169zm-80 56h48a8 8 0 0 1 0 16h-48a8 8 0 0 1 0-16zm56 48h-64a8 8 0 0 1 0-16h64a8 8 0 0 1 0 16z"/><path d="m245.86 277.315 31.455-31.455-54.306-36.203-13.352 13.352z"/><path d="m264 320a23.9 23.9 0 0 0 16.01-6.139c-7.553-6.112-19.391-9.861-32.01-9.861s-24.457 3.749-32.01 9.861a23.9 23.9 0 0 0 16.01 6.139z"/><path d="m58.903 34.352-24.551 24.551 64.346 94.045 54.25-54.25z"/><path d="m408 224c15.181 0 29.393 4.309 39.719 11.67a24.01 24.01 0 0 0 .281-3.67v-80a8.009 8.009 0 0 0 -8-8h-64a8.009 8.009 0 0 0 -8 8v80a24.01 24.01 0 0 0 .281 3.67c10.326-7.361 24.538-11.67 39.719-11.67z"/><path d="m375.99 249.861a23.9 23.9 0 0 0 16.01 6.139h32a23.9 23.9 0 0 0 16.01-6.139c-7.553-6.112-19.391-9.861-32.01-9.861s-24.457 3.749-32.01 9.861z"/><path d="m304 296a40.045 40.045 0 0 1 -40 40h-32a40.045 40.045 0 0 1 -40-40v-55.169a56.2 56.2 0 0 0 -16 39.169v200h144v-200a56.2 56.2 0 0 0 -16-39.169zm-80 56h48a8 8 0 0 1 0 16h-48a8 8 0 0 1 0-16zm56 48h-64a8 8 0 0 1 0-16h64a8 8 0 0 1 0 16z"/><path d="m163.078 123.078h16v96h-16z" transform="matrix(.707 -.707 .707 .707 -70.863 171.078)"/><path d="m96 304h16v16h-16z"/><path d="m96 352h16v16h-16z"/><path d="m72 328h16v16h-16z"/><path d="m120 328h16v16h-16z"/><path d="m272 72h16v16h-16z"/><path d="m272 120h16v16h-16z"/><path d="m248 96h16v16h-16z"/><path d="m296 96h16v16h-16z"/></svg>